<?xml version="1.0" standalone="no"?>
<!DOCTYPE svg PUBLIC "-//W3C//DTD SVG 20010904//EN"
 "http://www.w3.org/TR/2001/REC-SVG-20010904/DTD/svg10.dtd">
<svg version="1.0" xmlns="http://www.w3.org/2000/svg"
 width="2000.000000pt" height="2000.000000pt" viewBox="0 0 2000.000000 2000.000000"
 preserveAspectRatio="xMidYMid meet">
<metadata>
Created by potrace 1.14, written by Peter Selinger 2001-2017
</metadata>
<g transform="translate(0.000000,2000.000000) scale(0.100000,-0.100000)"
fill="#000000" stroke="none">
<path d="M9970 17897 c-14 -8 -63 -36 -110 -64 -69 -41 -252 -147 -455 -263
-16 -9 -86 -50 -155 -90 -115 -66 -555 -320 -625 -360 -16 -10 -145 -84 -285
-165 -140 -81 -276 -159 -301 -174 -67 -38 -335 -193 -370 -214 -85 -49 -587
-339 -659 -379 -19 -11 -91 -53 -160 -93 -69 -40 -170 -98 -225 -130 -55 -32
-113 -66 -130 -75 -126 -73 -357 -207 -390 -225 -22 -13 -80 -46 -130 -75 -49
-29 -103 -60 -120 -70 -16 -9 -86 -49 -154 -88 -68 -40 -127 -72 -132 -72 -5
0 -9 -4 -9 -10 0 -5 -5 -10 -10 -10 -6 0 -45 -21 -88 -46 -42 -25 -86 -50 -97
-56 -11 -7 -74 -43 -140 -81 -66 -39 -133 -78 -150 -87 -16 -9 -144 -83 -284
-164 -139 -80 -257 -146 -262 -146 -5 0 -9 -4 -9 -10 0 -5 -4 -10 -10 -10 -5
0 -47 -22 -92 -49 -212 -126 -730 -421 -738 -421 -6 0 -10 -3 -10 -8 0 -4 -21
-18 -48 -32 -26 -14 -118 -67 -205 -117 -87 -51 -160 -93 -163 -93 -3 0 -28
-15 -57 -33 l-52 -34 1 -3951 c0 -2457 4 -3956 10 -3961 7 -7 1164 -677 1284
-744 38 -20 195 -112 273 -159 26 -15 49 -28 51 -28 2 0 33 -17 67 -38 35 -22
84 -50 109 -64 25 -14 171 -98 325 -188 154 -89 298 -172 320 -185 22 -12 80
-45 128 -74 49 -28 93 -51 98 -51 5 0 9 -4 9 -10 0 -5 4 -10 10 -10 5 0 76
-39 157 -87 82 -47 173 -100 203 -116 30 -17 78 -46 107 -64 29 -18 55 -33 58
-33 3 0 22 -11 43 -23 20 -13 57 -35 82 -49 25 -14 133 -76 240 -138 107 -62
211 -122 230 -132 57 -33 194 -112 211 -123 9 -5 43 -25 75 -43 32 -18 75 -42
94 -53 27 -17 580 -336 725 -419 30 -18 105 -61 205 -119 30 -17 62 -36 70
-41 8 -5 40 -23 70 -40 30 -16 73 -40 95 -53 61 -36 355 -207 400 -232 66 -38
218 -126 250 -146 17 -10 37 -22 45 -26 8 -4 80 -45 160 -91 80 -47 161 -94
180 -105 152 -86 327 -187 390 -225 l75 -45 60 33 c33 18 203 115 377 216 175
101 320 184 323 184 3 0 11 5 18 10 19 17 288 170 298 170 5 0 9 5 9 10 0 6 4
10 9 10 5 0 235 131 512 291 277 161 520 300 539 311 19 11 49 28 67 38 27 16
934 540 1162 672 46 26 86 48 89 48 3 0 13 6 21 14 9 7 41 27 71 43 48 27 261
150 308 178 9 6 40 23 67 38 28 15 65 37 84 48 38 23 304 176 336 194 11 6 39
23 62 38 24 15 45 27 47 27 3 0 29 14 58 31 52 31 85 51 151 88 18 10 91 52
163 93 71 42 377 218 679 393 303 174 622 359 710 410 88 51 178 103 200 115
55 31 285 165 369 214 l68 41 0 3954 c0 3854 0 3955 -18 3969 -11 7 -44 27
-74 43 -30 16 -69 38 -85 48 -31 19 -1042 603 -1105 638 -19 11 -70 41 -113
67 -43 25 -81 46 -83 46 -2 0 -21 11 -42 23 -20 13 -57 35 -82 49 -25 14 -85
49 -135 78 -49 29 -115 66 -145 83 -30 16 -62 36 -71 43 -8 8 -18 14 -21 14
-4 0 -98 53 -210 118 -111 65 -223 130 -248 144 -25 14 -133 76 -240 138 -107
62 -215 124 -240 138 -25 14 -57 33 -72 43 -14 11 -28 19 -31 19 -3 0 -113 62
-244 138 -131 77 -323 188 -427 248 -104 60 -200 116 -215 124 -14 8 -60 35
-101 58 -41 23 -82 47 -90 52 -8 5 -80 47 -160 93 -285 164 -699 403 -945 545
-309 178 -640 369 -680 392 -108 62 -333 192 -345 199 -8 5 -80 47 -159 93
-80 46 -156 90 -170 98 -14 9 -73 42 -131 75 -58 32 -117 67 -132 77 -31 21
-36 22 -68 5z"/>
</g>
</svg>
